<svg xmlns="http://www.w3.org/2000/svg" xmlns:xlink="http://www.w3.org/1999/xlink" width="2152" height="418" viewBox="0 0 2152 418"><defs><clipPath id="a"><rect width="2152" height="418" transform="translate(-16464 -2060)" fill="#fff" stroke="#707070" stroke-width="1"/></clipPath><linearGradient id="b" x1="-0.001" y1="0.481" x2="1" y2="0.481" gradientUnits="objectBoundingBox"><stop offset="0" stop-color="#fff"/><stop offset="1" stop-color="#fff"/></linearGradient><linearGradient id="c" x1="-0.003" y1="0.419" x2="1.009" y2="0.419" xlink:href="#b"/></defs><g transform="translate(16464 2060)" clip-path="url(#a)"><g transform="translate(-16525.443 -2356.389)"><path d="M2230.069,762.823,56.959,724.1s-68.548-360.165,3-320.818c522.238,287.2,1134.146-78.6,1655-60.488,364.007,12.658,456.032,137.435,488.029,262.7C2222.87,683.311,2230.069,762.823,2230.069,762.823Z" transform="translate(0 12.13)" opacity="0.75" fill="url(#b)"/><path d="M2206.567,852.317,20.779,565.268S.4,295.753,68.842,340.062c499.554,323.423,1136.994,1.913,1655.137,56.859,362.113,38.4,444.636,169.364,467.255,296.558C2205.286,772.5,2206.567,852.317,2206.567,852.317Z" transform="translate(4.454 0)" opacity="0.75" fill="url(#c)"/></g></g></svg>